<?xml version="1.0" encoding="UTF-8" standalone="no"?>
<svg width="26px" height="18px" viewBox="0 0 26 18" version="1.1" xmlns="http://www.w3.org/2000/svg" xmlns:xlink="http://www.w3.org/1999/xlink">
    <!-- Generator: sketchtool 3.7.2 (28276) - http://www.bohemiancoding.com/sketch -->
    <title>AFB3ACEC-8797-42DA-879A-6A2A37C2F2CC</title>
    <desc>Created with sketchtool.</desc>
    <defs></defs>
    <g id="Page-1" stroke="none" stroke-width="1" fill="none" fill-rule="evenodd">
        <g id="chrome-plugin-social-icons" transform="translate(-1260.000000, -529.000000)" fill="#FFFFFF">
            <g id="Group" transform="translate(1257.000000, 153.000000)">
                <path d="M3.82911218,377.857555 C4.53400098,378.236 14.2984441,383.482221 14.6624441,383.677221 C15.026444,383.872221 15.4973328,383.964666 15.9711105,383.964666 C16.4448883,383.964666 16.9157771,383.872221 17.279777,383.677221 C17.643777,383.482221 27.4082201,378.236 28.1131089,377.857555 C28.8194421,377.477666 29.4867754,376 28.1911089,376 L3.75255664,376 C2.45689015,376 3.12422339,377.477666 3.82911218,377.857555 L3.82911218,377.857555 Z M28.4409978,381.039666 C27.6393312,381.45711 17.7708881,386.599332 17.279777,386.856443 C16.788666,387.113554 16.4448883,387.143887 15.9711105,387.143887 C15.4973328,387.143887 15.1535551,387.113554 14.6624441,386.856443 C14.171333,386.599332 4.35922322,381.455666 3.55755667,381.038222 C2.99422341,380.743555 3.00000118,381.088777 3.00000118,381.354555 L3.00000118,391.888887 C3.00000118,392.495553 3.81755663,393.333331 4.44444543,393.333331 L27.5555534,393.333331 C28.1824422,393.333331 28.9999977,392.495553 28.9999977,391.888887 L28.9999977,381.355999 C28.9999977,381.090222 29.0057755,380.744999 28.4409978,381.039666 L28.4409978,381.039666 Z" id="email"></path>
            </g>
        </g>
    </g>
</svg>