<?xml version="1.0" encoding="UTF-8" standalone="no"?>
<svg width="33px" height="21px" viewBox="0 0 33 21" version="1.1" xmlns="http://www.w3.org/2000/svg" xmlns:xlink="http://www.w3.org/1999/xlink">
    <!-- Generator: sketchtool 3.7.2 (28276) - http://www.bohemiancoding.com/sketch -->
    <title>BA74D0CE-4BE8-40B7-830E-029BE027990A</title>
    <desc>Created with sketchtool.</desc>
    <defs></defs>
    <g id="Page-1" stroke="none" stroke-width="1" fill="none" fill-rule="evenodd">
        <g id="chrome-plugin-social-icons" transform="translate(-1257.000000, -383.000000)" fill="#FFFFFF">
            <g id="Group" transform="translate(1257.000000, 153.000000)">
                <path d="M28.4821286,238.353416 L28.4821286,234.830891 L25.9660395,234.830891 L25.9660395,238.353416 L22.3428712,238.353416 L22.3428712,240.869505 L25.9660395,240.869505 L25.9660395,244.492673 L28.4821286,244.492673 L28.4821286,240.869505 L32.0046533,240.869505 L32.0046533,238.353416 L28.4821286,238.353416 L28.4821286,238.353416 Z M10.165,238.152129 L10.165,242.177871 C10.165,242.177871 14.0703728,242.172638 15.6605411,242.172638 C14.7994348,244.782426 13.4604728,246.203614 10.165,246.203614 C6.82997418,246.203614 4.22702969,243.500026 4.22702969,240.165 C4.22702969,236.829974 6.82997418,234.126386 10.165,234.126386 C11.9282752,234.126386 13.0670571,234.746149 14.1116367,235.609973 C14.9477834,234.773826 14.8779368,234.654664 17.0052398,232.645718 C15.1993923,231.002007 12.7992446,230 10.165,230 C4.55100132,230 0,234.551001 0,240.165 C0,245.778898 4.55100132,250.33 10.165,250.33 C18.5563584,250.33 20.6073736,243.023277 19.9274257,238.152129 L10.165,238.152129 L10.165,238.152129 Z" id="gplus"></path>
            </g>
        </g>
    </g>
</svg>