<?xml version="1.0" encoding="UTF-8"?>
<svg width="50px" height="50px" viewBox="0 0 50 50" version="1.1" xmlns="http://www.w3.org/2000/svg" xmlns:xlink="http://www.w3.org/1999/xlink">
    <!-- Generator: sketchtool 41.1 (35376) - http://www.bohemiancoding.com/sketch -->
    <title>B76838E7-DBF3-488B-AABA-77A49D5EC54D</title>
    <desc>Created with sketchtool.</desc>
    <defs></defs>
    <g id="ELVA" stroke="none" stroke-width="1" fill="none" fill-rule="evenodd">
        <g id="Split" transform="translate(-15.000000, -16.000000)">
            <g id="sigil-circle" transform="translate(15.000000, 16.000000)">
                <path d="M25,50 C38.8071429,50 50,38.8071429 50,25 C50,11.1928571 38.8071429,0 25,0 C11.1928571,0 0,11.1928571 0,25 C0,38.8071429 11.1928571,50 25,50" id="green" fill="#36AF6D"></path>
                <path d="M23.3402352,29.5719732 C23.7905148,29.8019282 34.7088966,35.5785429 35.0535134,35.7643244 C35.7422347,36.1356113 36.4710629,35.4172596 36.0962888,34.7456798 C35.9075133,34.4074017 29.9937143,23.5114236 29.7939866,23.1776973 C29.5942588,22.843971 29.102977,22.6756477 28.7338591,22.8995966 C28.3722735,23.1189756 27.955542,23.3660071 27.7226018,23.4843506 C27.251869,23.7235029 27.194139,24.0828925 27.4053154,24.4824689 C27.8694452,25.36067 29.3302181,28.0250806 29.4974291,28.304298 C29.8475624,28.8889683 29.0669881,29.5563177 28.537689,29.264848 C28.3135219,29.1414056 24.8472554,27.3185694 24.6023305,27.1757737 C24.3574056,27.0329779 23.9235014,27.0344254 23.6258017,27.5159898 C23.4093236,27.8661686 23.1437026,28.3006649 23.0211714,28.5185025 C22.7802446,28.9468254 22.8899556,29.3420182 23.3402352,29.5719732 Z M11.8134505,23.4787958 C11.232206,23.1636626 11.3385157,22.3448491 12.0719736,22.1360113 C12.6933981,21.9590729 17.7397516,20.267767 19.2668821,19.755212 C19.5422005,19.6628061 19.7571389,19.4503025 19.8496297,19.1789982 C20.3697673,17.6532732 22.1070786,12.5572007 22.3018401,11.985904 C22.5312342,11.3130195 23.3616762,11.310551 23.7001402,11.9619649 C23.8203589,12.1933401 28.3897322,20.4737771 28.5487111,20.8250304 C28.70769,21.1762836 28.6052651,21.5653626 28.2449512,21.7897828 C27.8846374,22.0142031 27.2970429,22.3498744 27.0923218,22.4770417 C26.7216906,22.707268 26.3664488,22.5469792 26.1972479,22.1903635 C26.0280469,21.8337477 24.7245085,19.5327773 24.1929626,18.5559193 C23.9272723,18.0676421 23.1268523,17.8802631 22.857813,18.6694387 C22.6632216,19.2402357 22.2096719,20.5706376 21.9735622,21.2632207 C21.8832302,21.5281927 21.6542676,21.7562585 21.3867906,21.8448419 C20.7230036,22.0646759 19.4617084,22.4823934 18.7253064,22.726276 C18.1998018,22.9003133 17.9443688,23.7050905 18.6538751,24.0439858 C18.8020811,24.1147763 21.9965471,25.8286055 22.3261406,25.9853586 C22.655734,26.1421117 22.8390081,26.5946096 22.6460067,26.9151795 C22.3827542,27.3524344 22.0457327,27.9073741 21.9234761,28.0875384 C21.7115882,28.3997887 21.2953609,28.5037785 20.9457926,28.3194808 C20.5962242,28.1351831 12.0211397,23.5913986 11.8134505,23.4787958 Z" id="sigil" fill="#FFFFFF"></path>
            </g>
        </g>
    </g>
</svg>