<?xml version="1.0" encoding="UTF-8" standalone="no"?>
<svg width="29px" height="32px" viewBox="0 0 29 32" version="1.1" xmlns="http://www.w3.org/2000/svg" xmlns:xlink="http://www.w3.org/1999/xlink">
    <!-- Generator: sketchtool 3.7.2 (28276) - http://www.bohemiancoding.com/sketch -->
    <title>F8D09BFB-A097-421D-BAF0-B7AE4A6DAAB2</title>
    <desc>Created with sketchtool.</desc>
    <defs></defs>
    <g id="Page-1" stroke="none" stroke-width="1" fill="none" fill-rule="evenodd">
        <g id="chrome-plugin-social-icons" transform="translate(-1258.000000, -153.000000)" fill="#FFFFFF">
            <g id="Group" transform="translate(1257.000000, 153.000000)">
                <path d="M25.0963855,22.6351807 C23.8761446,22.6351807 22.7754217,23.1093976 21.9407229,23.8727711 L10.4939759,17.1971084 C10.5826506,16.8346988 10.6385542,16.4568675 10.6385542,16.0713253 C10.6385542,15.6857831 10.5826506,15.3098795 10.4939759,14.9474699 L21.8192771,8.3373494 C22.6790361,9.14120482 23.8279518,9.63855422 25.0963855,9.63855422 C27.7546988,9.63855422 29.9156627,7.47759036 29.9156627,4.81927711 C29.9156627,2.16096386 27.7546988,-1.77635684e-15 25.0963855,-1.77635684e-15 C22.4380723,-1.77635684e-15 20.2771084,2.16096386 20.2771084,4.81927711 C20.2771084,5.20481928 20.333012,5.5826506 20.4216867,5.94313253 L9.09638554,12.553253 C8.23662651,11.7513253 7.08771084,11.2520482 5.81927711,11.2520482 C3.16096386,11.2520482 1,13.413012 1,16.0713253 C1,18.7296386 3.16096386,20.8906024 5.81927711,20.8906024 C7.08771084,20.8906024 8.23662651,20.393253 9.09638554,19.5893976 L20.5431325,26.2650602 C20.4621687,26.6024096 20.4139759,26.9551807 20.4139759,27.3175904 C20.4139759,29.9045783 22.5093976,32 25.0963855,32 C27.6833735,32 29.7787952,29.9026506 29.7787952,27.3175904 C29.7787952,24.7325301 27.6833735,22.6351807 25.0963855,22.6351807 L25.0963855,22.6351807 Z" id="share"></path>
            </g>
        </g>
    </g>
</svg>