<?xml version="1.0" encoding="UTF-8" standalone="no"?>
<svg width="19px" height="32px" viewBox="0 0 19 32" version="1.1" xmlns="http://www.w3.org/2000/svg" xmlns:xlink="http://www.w3.org/1999/xlink">
    <!-- Generator: sketchtool 3.7.2 (28276) - http://www.bohemiancoding.com/sketch -->
    <title>B4FBD1E0-425B-483B-B322-142A3EC24877</title>
    <desc>Created with sketchtool.</desc>
    <defs></defs>
    <g id="Page-1" stroke="none" stroke-width="1" fill="none" fill-rule="evenodd">
        <g id="chrome-plugin-social-icons" transform="translate(-1264.000000, -450.000000)" fill="#FFFFFF">
            <g id="Group" transform="translate(1257.000000, 153.000000)">
                <path d="M25.3099589,327.138942 C24.2221607,328.18478 21.9897793,328.961733 19.8501484,328.997913 C19.7693329,328.999304 19.6900695,329 19.6104849,329 L19.6097892,329 C12.5721494,328.999625 10.6944464,323.627427 10.6944464,320.452983 L10.6944464,310.698176 C10.6944464,310.617735 10.6292053,310.552494 10.5487644,310.552494 L7.14573553,310.552494 C7.06524113,310.552494 7,310.487253 7,310.406759 L7,305.963029 C7,305.903568 7.03719654,305.850637 7.09258996,305.829068 C10.7297698,304.413191 12.7609687,301.599848 13.295261,297.248334 C13.3250182,297.006637 13.5244345,297 13.5265218,297 L18.069103,297 C18.1495973,297 18.2148385,297.065241 18.2148385,297.145736 L18.2148385,304.955832 C18.2148385,305.036273 18.2800796,305.101514 18.360574,305.101514 L24.0151981,305.101514 C24.0956389,305.101514 24.1608801,305.166809 24.1608801,305.24725 L24.1608801,310.406759 C24.1608801,310.487253 24.0956389,310.552494 24.0151981,310.552494 L18.3362223,310.552494 C18.2557279,310.552494 18.1904868,310.617735 18.1904868,310.69823 L18.1906473,319.96884 C18.2240975,322.056235 19.2343449,323.114383 21.1933451,323.114383 C21.9827146,323.114383 22.8868315,322.930755 23.7122737,322.615414 C23.7894498,322.585978 23.8746005,322.625208 23.9009859,322.703455 L25.3455499,326.98566 C25.3637467,327.039662 25.3510089,327.099444 25.3099589,327.138942" id="tumblr"></path>
            </g>
        </g>
    </g>
</svg>