<?xml version="1.0" encoding="UTF-8" standalone="no"?>
<svg width="32px" height="26px" viewBox="0 0 32 26" version="1.1" xmlns="http://www.w3.org/2000/svg" xmlns:xlink="http://www.w3.org/1999/xlink">
    <!-- Generator: sketchtool 3.7.2 (28276) - http://www.bohemiancoding.com/sketch -->
    <title>091D3FFA-B0E4-4113-B1B6-293DFEE855B0</title>
    <desc>Created with sketchtool.</desc>
    <defs></defs>
    <g id="Page-1" stroke="none" stroke-width="1" fill="none" fill-rule="evenodd">
        <g id="chrome-plugin-social-icons" transform="translate(-1257.000000, -310.000000)" fill="#FFFFFF">
            <g id="Group" transform="translate(1257.000000, 153.000000)">
                <path d="M32.0053019,160.079013 C30.8277119,160.601255 29.5622036,160.954216 28.2339467,161.112961 C29.5897146,160.300272 30.630803,159.013458 31.121085,157.480214 C29.8524159,158.232612 28.447128,158.779087 26.9514635,159.073631 C25.7536207,157.797469 24.0471161,157 22.1585703,157 C18.5321457,157 15.5920924,159.939936 15.5920924,163.566127 C15.5920924,164.080759 15.6502754,164.581928 15.7621927,165.062494 C10.3049369,164.788671 5.46662123,162.174536 2.22804384,158.20194 C1.6628381,159.171734 1.33902719,160.299687 1.33902719,161.503032 C1.33902719,163.781064 2.49835454,165.790893 4.26023242,166.968366 C3.18378942,166.934299 2.17138278,166.638935 1.28599525,166.147131 C1.28552698,166.174525 1.28552698,166.202036 1.28552698,166.229665 C1.28552698,169.411113 3.54892544,172.065051 6.55278089,172.668187 C6.00174041,172.818268 5.421667,172.89846 4.82274559,172.89846 C4.39966076,172.89846 3.98828276,172.857369 3.58744091,172.780689 C4.42295735,175.389439 6.84791007,177.287819 9.72123437,177.340851 C7.47399133,179.101909 4.64269455,180.151661 1.56637382,180.151661 C1.03640564,180.151661 0.51369569,180.120638 0,180.059996 C2.90586928,181.923021 6.3573939,183.01 10.0655322,183.01 C22.1432344,183.01 28.7477594,173.004524 28.7477594,164.327539 C28.7477594,164.042829 28.7414377,163.759641 28.7287944,163.478091 C30.0116288,162.552315 31.1249483,161.395798 32.0053019,160.079013" id="twitter"></path>
            </g>
        </g>
    </g>
</svg>